Coordinates
version=1
nRows=15
nColumns=23
inDegrees=yes

Units are S.I. units (second, meters, Newtons, ...)
If the header above contains a line with 'inDegrees', this indicates whether rotational values are in degrees (yes) or radians (no).

endheader
time	pelvis_tilt	pelvis_list	pelvis_rotation	pelvis_tx	pelvis_ty	pelvis_tz	hip_flexion_r	hip_adduction_r	hip_rotation_r	knee_angle_r	knee_angle_r_beta	ankle_angle_r	subtalar_angle_r	mtp_angle_r	hip_flexion_l	hip_adduction_l	hip_rotation_l	knee_angle_l	knee_angle_l_beta	ankle_angle_l	subtalar_angle_l	mtp_angle_l
     22.50000000	      1.07316119	     -6.87618342	     -4.26531395	      2.27537162	      1.02762665	      1.02766720	     17.67238780	     12.73121146	     -0.05809403	     35.11935488	      0.61294837	     16.13008668	     18.02802674	      0.00000000	     -3.33658603	    -12.95090411	     -5.63700556	     86.36918473	      1.50742665	    -13.54865779	     -8.13901491	      0.00000000
     22.50666667	      1.37592093	     -6.71566468	     -4.21668651	      2.27312986	      1.02197449	      1.02733054	     17.93549638	     12.51552020	     -0.31913843	     37.91640715	      0.66176615	     17.91989949	     18.13227024	      0.00000000	     -2.06132678	    -12.85604533	     -4.85757753	     88.83536462	      1.55046960	    -13.91850816	     -8.79968370	      0.00000000
     22.51333333	      1.71292544	     -6.58093465	     -4.20526621	      2.27079200	      1.01684878	      1.02710054	     17.91887686	     12.45822119	     -0.15092265	     40.28735498	      0.70314699	     19.58920704	     17.90673647	      0.00000000	     -0.80251529	    -12.77216892	     -4.13329867	     91.12599731	      1.59044869	    -14.04618857	     -9.29012856	      0.00000000
     22.52000000	      2.37615312	     -6.63821431	     -4.10184345	      2.26859269	      1.01276238	      1.02677366	     17.22183716	     12.63221814	      0.16444125	     42.07813636	      0.73440202	     21.10789112	     17.37103699	      0.00000000	      0.08812165	    -12.88662506	     -3.41831521	     93.16453152	      1.62602782	    -13.91478794	     -9.62823306	      0.00000000
     22.52666667	      2.82046089	     -6.50330046	     -4.10446035	      2.26635522	      1.00900055	      1.02657474	     16.59620003	     12.63781256	      0.60801085	     43.62748761	      0.76144330	     22.66121078	     17.01120367	      0.00000000	      1.24806266	    -12.77574217	     -2.81777863	     95.01955298	      1.65840405	    -13.50823584	     -9.89952063	      0.00000000
     22.53333333	      2.67309304	     -5.87833309	     -4.33876913	      2.26377357	      1.00485844	      1.02650241	     16.65764327	     12.02505663	      0.86748561	     45.30739436	      0.79076321	     24.30672411	     17.70175883	      0.00000000	      3.12776957	    -12.08289505	     -2.40425540	     96.76758182	      1.68891291	    -12.96103424	    -10.20340100	      0.00000000
     22.54000000	      3.11848566	     -5.69140738	     -4.42873352	      2.26163479	      1.00243411	      1.02641872	     15.60846629	     11.91900980	      1.33024742	     46.12588062	      0.80504849	     25.45677012	     17.53550828	      0.00000000	      4.25279388	    -11.90564847	     -2.03788552	     98.13378993	      1.71275774	    -12.21492530	    -10.38976252	      0.00000000
     22.54666667	      3.15127251	     -5.21766911	     -4.67635156	      2.25940626	      1.00007377	      1.02650484	     14.94621372	     11.47887667	      1.78404454	     46.86128205	      0.81788366	     26.57676311	     17.84761975	      0.00000000	      5.85336194	    -11.44285587	     -1.88528223	     99.31699441	      1.73340856	    -11.29552165	    -10.51921290	      0.00000000
     22.55333333	      3.45313061	     -4.97539709	     -4.80862845	      2.25753605	      0.99898754	      1.02652143	     13.65706892	     11.26092456	      2.26073806	     46.95064143	      0.81944328	     26.99466474	     17.85882170	      0.00000000	      7.08526438	    -11.21398350	     -1.71337937	    100.15697908	      1.74806905	    -10.49844376	    -10.83892445	      0.00000000
     22.56000000	      3.60357232	     -4.63952620	     -4.97715545	      2.25592103	      0.99841695	      1.02663807	     12.41028637	     10.88901036	      2.68160903	     46.84242000	      0.81755446	     27.67695595	     17.88696907	      0.00000000	      8.43628561	    -10.94731173	     -1.71162897	    100.72168133	      1.75792497	     -9.41305453	    -11.13636817	      0.00000000
     22.56666667	      3.59755898	     -4.30355639	     -5.21349140	      2.25459519	      0.99844576	      1.02686698	     11.16934785	     10.44886375	      3.00973761	     46.41667652	      0.81012383	     28.02551729	     17.99860929	      0.00000000	      9.87168818	    -10.73945815	     -1.88696392	    100.99108427	      1.76262694	     -8.63368422	    -11.34088930	      0.00000000
     22.57333333	      3.55902180	     -3.88979173	     -5.39433791	      2.25333829	      0.99890443	      1.02707641	      9.90972558	      9.94886812	      3.41569497	     45.88718653	      0.80088249	     28.42951310	     18.24183989	      0.00000000	     11.32901598	    -10.39147282	     -2.05143292	    101.05136228	      1.76367899	     -7.41493878	    -11.63093921	      0.00000000
     22.58000000	      3.36021567	     -3.50261574	     -5.60413622	      2.25248266	      1.00008605	      1.02726525	      8.66181731	      9.39567767	      3.68283459	     45.02426674	      0.78582170	     28.61598476	     18.51272420	      0.00000000	     12.84395475	    -10.15776752	     -2.40723542	    100.77157493	      1.75879578	     -6.52011445	    -11.86208140	      0.00000000
     22.58666667	      3.53790324	     -3.07088673	     -5.71698770	      2.25212763	      1.00230323	      1.02719985	      6.87715582	      8.60692175	      3.64514568	     43.92090960	      0.76656448	     28.74986249	     19.47183936	      0.00000000	     13.81519341	     -9.75858684	     -2.78858105	    100.14066341	      1.74778429	     -5.32145348	    -12.14762469	      0.00000000
     22.59333333	      3.12456697	     -2.70158342	     -5.86351045	      2.25181638	      1.00452894	      1.02737315	      5.64969133	      8.10184506	      3.95920690	     42.63145002	      0.74405917	     28.77417764	     19.85625825	      0.00000000	     15.39080021	     -9.53157434	     -3.21116111	     99.31972334	      1.73345618	     -4.45071340	    -12.47134718	      0.00000000
